# xmcd
#
# Track frame offsets: 
#        150
#        10409
#        23548
#        36237
#        45671
#        59656
#        71391
#        83002
#        93047
#        103799
#        114294
#        125435
#        136007
#        149672
#        162358
#        174251
#        185811
#        197628
#        207669
#        223973
#        236079
#        247608
#        260763
#        271682
#        280855
#        291483
#
# Disc length: 4017 seconds
#
# Revision: 2
# Processed by: cddbd v1.5.2PL0 Copyright (c) Steve Scherf et al.
# Submitted via: ExactAudioCopy v1.0b1
#
DISCID=820faf1a
DTITLE=Ian and The Zodiacs - Wade In The Water - Best
DYEAR=1966
DGENRE=Pop
TTITLE0=Wade In The Water
TTITLE1=As You Used To Do
TTITLE2=Going To A Go-Go
TTITLE3=Why Can't It Be Me
TTITLE4=Any Day Now
TTITLE5=Headin' Back To You
TTITLE6=Baby, I Need Your Loving
TTITLE7=This Won't Happen To Me
TTITLE8=What Kind Of Fool
TTITLE9=No Money, No Honey
TTITLE10=Respect
TTITLE11=Na-Na-Na-Na-Na
TTITLE12=Take A Message To Martha
TTITLE13=Ride Your Pony
TTITLE14=Clarabella
TTITLE15=Come On Along, Girl
TTITLE16=The 'In' Crowd
TTITLE17=It's A Crying Shame
TTITLE18=Can't Stop Running Away
TTITLE19=This Empty Place
TTITLE20=I Need You
TTITLE21=Leave It To Me
TTITLE22=The Crying Game
TTITLE23=No, Not Another Night
TTITLE24=So Much In Love With You
TTITLE25=Where Were You
EXTD=
EXTT0=
EXTT1=
EXTT2=
EXTT3=
EXTT4=
EXTT5=
EXTT6=
EXTT7=
EXTT8=
EXTT9=
EXTT10=
EXTT11=
EXTT12=
EXTT13=
EXTT14=
EXTT15=
EXTT16=
EXTT17=
EXTT18=
EXTT19=
EXTT20=
EXTT21=
EXTT22=
EXTT23=
EXTT24=
EXTT25=
PLAYORDER=
